<svg width="32" height="38" viewBox="0 0 32 38" fill="none" xmlns="http://www.w3.org/2000/svg">
<path d="M8.28407 16.4207L0.0437012 32.0482L7.52669 31.3524L11.1484 37.981L19.3888 22.3535L8.28407 16.4207Z" fill="#E95454"/>
<path d="M9.22785 33.4305C9.45908 32.9306 9.21723 32.3332 8.73355 32.0744L8.2593 31.8202C7.78505 31.5483 7.60455 30.9439 7.86291 30.4546C8.12481 29.9571 8.74063 29.7671 9.23493 30.0307L10.5751 30.7467C10.9892 30.9676 11.5083 30.8073 11.7218 30.3881L11.7548 30.324C12.0002 29.9286 11.8551 29.4061 11.4469 29.1887L7.43821 27.0477C6.94981 26.7864 6.71032 26.1915 6.93801 25.6904C7.18929 25.1572 7.82398 24.947 8.3348 25.2201L12.0533 27.2068C12.4674 27.4277 12.9865 27.2674 13.2059 26.8506L13.2271 26.7959L13.233 26.7841C13.4701 26.3471 13.3038 25.7984 12.8661 25.5645L10.7804 24.4506C10.292 24.1894 10.0525 23.5944 10.2837 23.0874C10.5326 22.5601 11.1697 22.344 11.6805 22.6171L13.9845 23.8486C14.4151 24.0789 14.9295 23.8866 15.1524 23.4496C15.156 23.4436 15.156 23.4436 15.1583 23.4377C15.1619 23.4317 15.1619 23.4317 15.1642 23.4258C15.399 22.9947 15.2692 22.458 14.8374 22.2288L12.3518 20.9012C11.8693 20.6435 11.6298 20.0486 11.8575 19.5474C12.1087 19.0142 12.7434 18.8041 13.2542 19.0772L19.3865 22.3535L11.1461 37.981L8.87511 33.8259C9.0214 33.7262 9.14881 33.6027 9.22785 33.4305Z" fill="#ED6362"/>
<path d="M23.6984 16.4207L31.9387 32.0482L24.4557 31.3524L20.834 37.981L12.5936 22.3535L23.6984 16.4207Z" fill="#ED6362"/>
<path d="M22.7545 33.4305C22.5233 32.9306 22.7651 32.3332 23.2488 32.0744L23.7231 31.8202C24.1973 31.5483 24.3778 30.9439 24.1194 30.4546C23.8575 29.9571 23.2417 29.7671 22.7474 30.0307L21.4073 30.7467C20.9932 30.9676 20.4741 30.8073 20.2606 30.3881L20.2275 30.324C19.9822 29.9286 20.1273 29.4061 20.5354 29.1887L24.5453 27.0465C25.0337 26.7852 25.2732 26.1903 25.0455 25.6892C24.7942 25.156 24.1596 24.9458 23.6487 25.2189L19.9302 27.2056C19.5162 27.4265 18.9971 27.2662 18.7777 26.8494L18.7564 26.7947L18.7505 26.7829C18.5134 26.3459 18.6797 25.7972 19.1174 25.5633L21.2032 24.4494C21.6916 24.1882 21.9311 23.5932 21.6998 23.0862C21.4509 22.5589 20.8139 22.3428 20.303 22.6159L17.9967 23.8497C17.5661 24.0801 17.0517 23.8877 16.8288 23.4507C16.8252 23.4448 16.8252 23.4448 16.8229 23.4389C16.8193 23.4329 16.8193 23.4329 16.817 23.427C16.5822 22.9959 16.712 22.4592 17.1437 22.23L19.6294 20.9024C20.1119 20.6447 20.3514 20.0497 20.1237 19.5486C19.8724 19.0154 19.2377 18.8052 18.7269 19.0784L12.5947 22.3547L20.8351 37.9822L23.1061 33.8271C22.961 33.7262 22.8335 33.6027 22.7545 33.4305Z" fill="#E95454"/>
<ellipse cx="15.9912" cy="13.8593" rx="13.7686" ry="13.8593" fill="#FFCC5B"/>
<path d="M17.8588 12.2693H9.13353C8.45519 12.2693 7.89836 11.7088 7.89836 11.0259L7.90779 10.9404V10.9214C7.89836 10.2006 8.48232 9.61163 9.19959 9.61163H15.2469C16.0479 9.61163 16.7557 9.01432 16.8029 8.20682C16.8407 7.3625 16.1718 6.65 15.3318 6.65H8.9259C8.21924 6.65 7.69073 6.05269 7.70016 5.34019C7.70016 5.33069 7.70016 5.33069 7.70016 5.32119C7.70016 5.31169 7.70016 5.31169 7.70016 5.30219C7.69073 4.59088 8.21806 3.99238 8.9259 3.99238H15.6291C16.4207 3.99238 17.1285 3.39507 17.1757 2.59707C17.2135 1.74325 16.5445 1.04025 15.7046 1.04025H10.7958C5.79019 3.11719 2.26282 8.07144 2.26282 13.8593C2.26282 19.6472 5.79019 24.6003 10.7969 26.6748H17.0294C17.821 26.6748 18.5288 26.0775 18.576 25.2795C18.6138 24.4257 17.9449 23.7239 17.1049 23.7239L10.0148 23.7227C9.17836 23.7227 8.50473 23.0185 8.54956 22.1659C8.59085 21.3679 9.30341 20.7682 10.0974 20.7682H12.8461C13.6365 20.7456 14.2748 20.0937 14.2748 19.2921C14.2748 18.4763 13.6153 17.8113 12.8036 17.8113H8.63686C7.95852 17.8113 7.40169 17.252 7.41113 16.568V16.4635C7.36394 15.7902 7.9019 15.2202 8.5708 15.2202H17.7738C18.5749 15.2202 19.2827 14.6229 19.3299 13.8249C19.3676 12.9723 18.6975 12.2693 17.8588 12.2693Z" fill="#FDBC4B"/>
<path d="M15.9912 23.7512C10.5716 23.7512 6.16296 19.3123 6.16296 13.8581C6.16296 8.40394 10.5716 3.96625 15.9912 3.96625C21.4109 3.96625 25.8195 8.40512 25.8195 13.8593C25.8195 19.3135 21.4109 23.7512 15.9912 23.7512Z" fill="#FFDB70"/>
<path d="M11.2557 17.7757C11.1012 17.917 11.0103 18.0856 10.9384 18.2638C10.8699 18.4431 10.8204 18.6319 10.8334 18.8433C10.8475 19.0558 10.9336 19.2898 10.9454 19.4999C10.9478 19.5273 10.9407 19.5534 10.9419 19.5795C10.5455 19.0523 10.2069 18.4929 9.92733 17.9111C9.93441 17.7935 9.95211 17.6819 9.99458 17.5833C10.063 17.4123 10.2081 17.2841 10.3001 17.1285C10.391 16.9729 10.4358 16.7948 10.4747 16.6131C10.5101 16.4291 10.5384 16.2426 10.5207 16.0241C10.5042 16.0134 10.4865 16.0028 10.47 15.9909C10.2942 16.0847 10.1727 16.2165 10.0665 16.3614C9.96508 16.5086 9.87778 16.6678 9.84475 16.8625C9.81408 17.0584 9.84475 17.29 9.81054 17.4812C9.80464 17.518 9.78813 17.5501 9.77869 17.5857C9.52387 17.0038 9.32567 16.4018 9.18529 15.7878C9.21714 15.6548 9.26079 15.5313 9.33275 15.4339C9.43185 15.295 9.59701 15.2131 9.71498 15.0943C9.83178 14.9732 9.90846 14.8212 9.97924 14.6621C10.0477 14.4994 10.109 14.3331 10.1302 14.1241C10.1161 14.1099 10.1019 14.0956 10.0878 14.0814C9.90374 14.1253 9.76335 14.2191 9.63594 14.3272C9.51089 14.4376 9.39882 14.5659 9.32921 14.7357C9.26197 14.9079 9.24663 15.1288 9.17585 15.295C9.15815 15.3401 9.12984 15.3746 9.10625 15.4149C8.99063 14.8069 8.93047 14.1894 8.92693 13.5708C8.98945 13.4247 9.0626 13.2917 9.16877 13.2038C9.2891 13.0993 9.45898 13.0661 9.59229 12.9841C9.72442 12.901 9.8247 12.7751 9.92025 12.6433C10.0135 12.5068 10.1008 12.3631 10.1586 12.1683C10.1479 12.1505 10.1373 12.1339 10.1267 12.1161C9.94503 12.1113 9.79756 12.1671 9.65836 12.2372C9.52151 12.312 9.39174 12.4023 9.29618 12.5471C9.20062 12.6932 9.14636 12.8963 9.04844 13.034C9.01541 13.0827 8.97412 13.1183 8.93401 13.1563C8.95524 12.5519 9.02956 11.9486 9.15697 11.3525C9.16287 11.343 9.16877 11.3347 9.17467 11.3252C9.27023 11.1791 9.3764 11.0497 9.50971 10.9844C9.64066 10.9155 9.80346 10.9286 9.94267 10.8834C10.0807 10.8371 10.1963 10.7421 10.3096 10.6364C10.4205 10.5272 10.5278 10.4096 10.6187 10.2327C10.6116 10.2137 10.6057 10.1935 10.5986 10.1733C10.4323 10.1246 10.286 10.1424 10.1444 10.1757C10.004 10.2137 9.86717 10.2695 9.75155 10.3847C9.63594 10.5023 9.54628 10.6839 9.42949 10.7884C9.37876 10.8371 9.32331 10.8692 9.26551 10.9001C9.42123 10.3087 9.6324 9.72682 9.89666 9.16276C9.90138 9.16988 9.90728 9.17582 9.912 9.18294C9.93441 9.15919 9.95801 9.13663 9.98042 9.11288C10.0984 8.99532 10.2211 8.89676 10.3544 8.86707C10.4877 8.83263 10.6328 8.88607 10.7673 8.87538C10.9018 8.86351 11.0268 8.79819 11.1519 8.72101C11.2758 8.63907 11.3984 8.54763 11.5188 8.39326C11.5176 8.37188 11.5152 8.35051 11.5141 8.33032C11.3737 8.24363 11.238 8.22582 11.1012 8.22582C10.9655 8.22938 10.8298 8.25194 10.7001 8.33744C10.5703 8.42532 10.45 8.58088 10.3225 8.65451C10.26 8.69369 10.194 8.71626 10.1279 8.73051C10.1302 8.71744 10.1302 8.70557 10.1326 8.69251C10.562 7.88976 11.1082 7.13094 11.7724 6.43982C11.1436 7.05138 10.6092 7.72588 10.168 8.44432C10.1692 8.42294 10.1786 8.39801 10.1786 8.37663C10.1892 8.22226 10.1963 8.06907 10.1822 7.92419C10.1361 7.64038 10.0595 7.36607 9.85065 7.13451C9.82824 7.14282 9.80582 7.15113 9.78341 7.15944C9.56162 7.55251 9.50381 7.89569 9.50263 8.20919C9.51207 8.36238 9.54628 8.50251 9.59229 8.63669C9.63004 8.77563 9.69847 8.89794 9.78341 9.01076C9.7952 9.02738 9.807 9.04282 9.81998 9.05944C9.56752 9.54276 9.35517 10.0439 9.18411 10.5557C9.18293 10.5509 9.18411 10.545 9.18293 10.5391C9.14872 10.3811 9.11568 10.2208 9.06496 10.0724C8.94698 9.78619 8.80306 9.51426 8.54116 9.31119C8.5211 9.32426 8.50223 9.33732 8.48217 9.35038C8.36302 9.80163 8.39133 10.1709 8.47155 10.4963C8.51874 10.6531 8.59071 10.792 8.67093 10.9226C8.74407 11.0592 8.84435 11.1732 8.9576 11.2741C8.96114 11.2765 8.96468 11.2801 8.96704 11.2824C8.83727 11.7907 8.74525 12.3073 8.69334 12.8286C8.62374 12.6754 8.55296 12.5234 8.46802 12.3868C8.2769 12.1137 8.06573 11.8584 7.75428 11.6945C7.73777 11.7111 7.72125 11.7278 7.70473 11.7456C7.69766 12.2348 7.81917 12.6101 7.98197 12.9307C8.07045 13.0839 8.1778 13.2133 8.29224 13.3321C8.39251 13.4484 8.51402 13.5363 8.64261 13.6147C8.62964 14.1289 8.65323 14.6454 8.71576 15.1584C8.61194 15.0254 8.50931 14.8913 8.39605 14.7761C8.13297 14.5338 7.85456 14.3106 7.50064 14.1954C7.48766 14.2156 7.47587 14.2358 7.46289 14.2559C7.57614 14.7583 7.79557 15.1204 8.04331 15.4161C8.1719 15.5563 8.31465 15.6679 8.46212 15.7664C8.58009 15.8555 8.71222 15.9125 8.84671 15.9636C8.94698 16.4647 9.08501 16.9599 9.25961 17.4468C9.1263 17.3399 8.99535 17.2306 8.85732 17.1392C8.52464 16.9433 8.1837 16.7675 7.79203 16.7153C7.78378 16.7378 7.7767 16.7604 7.76844 16.7829C8.01028 17.2734 8.32645 17.5999 8.65795 17.8517C8.82665 17.9693 9.00243 18.0536 9.18057 18.1248C9.31034 18.1842 9.44601 18.2103 9.58049 18.2353C9.79284 18.7031 10.0429 19.1591 10.3284 19.5985C10.1704 19.5225 10.0135 19.4418 9.85537 19.3824C9.45898 19.2518 9.06024 19.1389 8.64143 19.1568C8.63908 19.1817 8.63672 19.2054 8.63436 19.2304C9.00833 19.6816 9.42241 19.9488 9.83296 20.1364C10.0394 20.2208 10.2459 20.2706 10.4511 20.3063C10.5856 20.3359 10.7177 20.3312 10.8511 20.3324C11.0728 20.6174 11.3123 20.8929 11.5671 21.1589C11.7016 21.0235 11.8373 20.8869 11.9718 20.7516C11.678 20.4666 11.4055 20.1661 11.1531 19.855C11.1401 19.7529 11.1354 19.6543 11.1495 19.5605C11.1743 19.3622 11.2864 19.1912 11.3406 19.0059C11.3925 18.8195 11.3961 18.6224 11.3937 18.4229C11.3878 18.2222 11.3749 18.0215 11.3111 17.7994C11.2935 17.7899 11.2746 17.7828 11.2557 17.7757Z" fill="#ED6362"/>
<path d="M20.7266 17.7757C20.8811 17.917 20.9719 18.0856 21.0439 18.2638C21.1123 18.4431 21.1619 18.6319 21.1489 18.8433C21.1347 19.0558 21.0486 19.2898 21.0368 19.4999C21.0345 19.5273 21.0415 19.5534 21.0404 19.5795C21.4367 19.0523 21.7753 18.4929 22.0549 17.9111C22.0478 17.7935 22.0301 17.6819 21.9877 17.5833C21.9193 17.4123 21.7741 17.2841 21.6821 17.1285C21.5913 16.9729 21.5465 16.7948 21.5075 16.6131C21.4721 16.4291 21.4438 16.2426 21.4615 16.0241C21.478 16.0134 21.4957 16.0028 21.5122 15.9909C21.688 16.0847 21.8095 16.2165 21.9157 16.3614C22.0172 16.5086 22.1045 16.6678 22.1375 16.8625C22.1682 17.0584 22.1375 17.29 22.1717 17.4812C22.1776 17.518 22.1941 17.5501 22.2036 17.5857C22.4584 17.0038 22.6566 16.4018 22.797 15.7878C22.7651 15.6548 22.7215 15.5313 22.6495 15.4339C22.5504 15.295 22.3852 15.2131 22.2673 15.0943C22.1505 14.9732 22.0738 14.8212 22.003 14.6621C21.9346 14.4994 21.8732 14.3331 21.852 14.1241C21.8662 14.1099 21.8803 14.0956 21.8945 14.0814C22.0785 14.1253 22.2189 14.2191 22.3463 14.3272C22.4714 14.4376 22.5834 14.5659 22.653 14.7357C22.7203 14.9079 22.7356 15.1288 22.8064 15.295C22.8241 15.3401 22.8524 15.3746 22.876 15.4149C22.9916 14.8069 23.0518 14.1894 23.0553 13.5708C22.9928 13.4247 22.9197 13.2917 22.8135 13.2038C22.6931 13.0993 22.5233 13.0661 22.39 12.9841C22.2578 12.901 22.1576 12.7751 22.062 12.6433C21.9688 12.5068 21.8815 12.3631 21.8237 12.1683C21.8343 12.1505 21.8449 12.1339 21.8555 12.1161C22.0372 12.1113 22.1847 12.1671 22.3239 12.2372C22.4607 12.312 22.5905 12.4023 22.6861 12.5471C22.7816 12.6932 22.8359 12.8963 22.9338 13.034C22.9668 13.0827 23.0081 13.1183 23.0482 13.1563C23.027 12.5519 22.9527 11.9486 22.8253 11.3525C22.8194 11.343 22.8135 11.3347 22.8076 11.3252C22.712 11.1791 22.6058 11.0497 22.4725 10.9844C22.3416 10.9155 22.1788 10.9286 22.0396 10.8834C21.9016 10.8371 21.7859 10.7421 21.6727 10.6364C21.5618 10.5272 21.4544 10.4096 21.3636 10.2327C21.3707 10.2137 21.3766 10.1935 21.3837 10.1733C21.55 10.1246 21.6963 10.1424 21.8378 10.1757C21.9782 10.2137 22.1151 10.2695 22.2307 10.3847C22.3463 10.5023 22.436 10.6839 22.5528 10.7884C22.6035 10.8371 22.6589 10.8692 22.7167 10.9001C22.5634 10.3099 22.3534 9.72801 22.088 9.16395C22.0832 9.17107 22.0773 9.17701 22.0726 9.18414C22.0502 9.16039 22.0266 9.13782 22.0042 9.11407C21.8862 8.99651 21.7635 8.89795 21.6302 8.86826C21.4969 8.83382 21.3518 8.88726 21.2173 8.87657C21.0828 8.8647 20.9578 8.79939 20.8327 8.7222C20.7089 8.64026 20.5862 8.54882 20.4658 8.39445C20.467 8.37307 20.4694 8.3517 20.4706 8.33151C20.6109 8.24482 20.7466 8.22701 20.8835 8.22701C21.0191 8.23057 21.1548 8.25314 21.2846 8.33864C21.4143 8.42651 21.5347 8.58207 21.6621 8.6557C21.7246 8.69489 21.7907 8.71745 21.8567 8.7317C21.8544 8.71982 21.8532 8.70676 21.852 8.69489C21.4226 7.89214 20.8764 7.13332 20.2122 6.4422C20.841 7.05376 21.3754 7.72826 21.8166 8.4467C21.8154 8.42532 21.806 8.40039 21.806 8.37901C21.7954 8.22464 21.7883 8.07145 21.8025 7.92657C21.8485 7.64276 21.9251 7.36845 22.134 7.13689C22.1564 7.1452 22.1788 7.15351 22.2012 7.16182C22.423 7.55489 22.4808 7.89807 22.482 8.21157C22.4725 8.36476 22.4383 8.50489 22.3923 8.63907C22.3546 8.77801 22.2861 8.90032 22.2012 9.01314C22.1894 9.02976 22.1776 9.0452 22.1646 9.06182C22.4171 9.54514 22.6294 10.0463 22.8005 10.5581C22.8017 10.5533 22.8005 10.5474 22.8017 10.5414C22.8335 10.3811 22.8666 10.2208 22.9173 10.0724C23.0353 9.7862 23.1792 9.51426 23.4411 9.3112C23.4611 9.32426 23.4812 9.33614 23.5013 9.3492C23.6204 9.80045 23.5921 10.1698 23.5131 10.4951C23.4659 10.6519 23.3939 10.7908 23.3137 10.9214C23.2405 11.058 23.1403 11.172 23.027 11.2729C23.0235 11.2753 23.0199 11.2789 23.0176 11.2813C23.1473 11.7895 23.2394 12.3061 23.2913 12.8274C23.3609 12.6742 23.4317 12.5222 23.5166 12.3856C23.7077 12.1125 23.9189 11.8572 24.2303 11.6933C24.2468 11.7099 24.2634 11.7266 24.2799 11.7432C24.287 12.2325 24.1654 12.6077 24.0026 12.9283C23.9142 13.0815 23.8068 13.2109 23.6924 13.3297C23.5921 13.4461 23.4706 13.5339 23.342 13.6123C23.355 14.1265 23.3314 14.6431 23.2689 15.1561C23.3727 15.0231 23.4753 14.8889 23.5886 14.7737C23.8516 14.5314 24.1301 14.3082 24.484 14.193C24.4969 14.2132 24.5087 14.2334 24.5217 14.2536C24.4085 14.7559 24.189 15.1181 23.9413 15.4138C23.8127 15.5539 23.67 15.6655 23.5225 15.7641C23.4045 15.8531 23.2724 15.9101 23.1379 15.9612C23.0376 16.4623 22.8996 16.9575 22.725 17.4444C22.8583 17.3375 22.9893 17.2283 23.1273 17.1368C23.46 16.9409 23.8009 16.7651 24.1926 16.7129C24.2008 16.7354 24.2079 16.758 24.2162 16.7806C23.9743 17.271 23.6582 17.5976 23.3267 17.8493C23.158 17.9669 22.9822 18.0512 22.804 18.1224C22.6743 18.1818 22.5386 18.2079 22.4041 18.2329C22.1918 18.7008 21.9417 19.1568 21.6562 19.5961C21.8143 19.5201 21.9712 19.4394 22.1292 19.38C22.5256 19.2494 22.9244 19.1366 23.3432 19.1544C23.3455 19.1793 23.3479 19.2031 23.3503 19.228C22.9763 19.6793 22.5622 19.9465 22.1517 20.1341C21.9452 20.2184 21.7388 20.2683 21.5335 20.3039C21.399 20.3336 21.2669 20.3288 21.1336 20.33C20.9118 20.615 20.6723 20.8905 20.4175 21.1565C20.283 21.0211 20.1473 20.8846 20.0128 20.7492C20.3066 20.4642 20.5791 20.1638 20.8315 19.8526C20.8445 19.7505 20.8492 19.6519 20.8351 19.5581C20.8103 19.3598 20.6982 19.1888 20.644 19.0036C20.5921 18.8171 20.5885 18.62 20.5909 18.4205C20.5968 18.2198 20.6098 18.0191 20.6735 17.7971C20.6888 17.7899 20.7077 17.7828 20.7266 17.7757Z" fill="#ED6362"/>
<path d="M15.7965 7.30786C15.5134 8.10349 14.992 8.79817 14.2311 9.39549C13.8429 9.70067 13.4772 9.92511 13.1198 10.1234V12.4094C13.929 12.0341 14.6852 11.5876 15.327 10.9832V20.4084H17.8115V7.30786H15.7965Z" fill="#E95454"/>
</svg>
